                  Paparazzi 2004 DVDRip Xvid fasamoo LKRG

RIPPER                           : fasamoo
Format                           : AVI
Format/Info                      : Audio Video Interleave
File size                        : 700 MiB
Duration                         : 1h 24mn
Overall bit rate                 : 1 161 Kbps
Writing application              : VirtualDubMod 1.5.4.1 (build 2178/release)
Writing library                  : VirtualDubMod build 2178/release
Language                         : English | Spanish
Subtitles                        : English(*.srt) | English|French|Spanish(*.idx,*.sub)
Genre                            : Action | Crime | Thriller

Video
ID                               : 0
Format                           : MPEG-4 Visual
Format profile                   : Advanced Simple@L5
Format settings, BVOP            : Yes
Format settings, QPel            : No
Format settings, GMC             : No warppoints
Format settings, Matrix          : Custom
Codec ID                         : XVID
Codec ID/Hint                    : XviD
Duration                         : 1h 24mn
Bit rate                         : 1 034 Kbps
Width                            : 640 pixels
Height                           : 256 pixels
Display aspect ratio             : 2.500
Frame rate                       : 23.976 fps
Color space                      : YUV
Chroma subsampling               : 4:2:0
Bit depth                        : 8 bits
Scan type                        : Progressive
Bits/(Pixel*Frame)               : 0.263
Stream size                      : 623 MiB (89%)
Writing library                  : XviD 1.2.1 (UTC 2008-12-04)

Audio
ID                               : 1
Format                           : MPEG Audio
Format version                   : Version 1
Format profile                   : Layer 3
Mode                             : Joint stereo
Mode extension                   : MS Stereo
Codec ID                         : 55
Codec ID/Hint                    : MP3
Duration                         : 1h 24mn
Bit rate mode                    : Variable
Bit rate                         : 115 Kbps
Nominal bit rate                 : 128 Kbps
Channel(s)                       : 2 channels
Sampling rate                    : 48.0 KHz
Stream size                      : 69.3 MiB (10%)
Alignment                        : Aligned on interleaves
Interleave, duration             : 24 ms (0.58 video frame)
Interleave, preload duration     : 160 ms
Writing library                  : LAME3.98r
Encoding settings                : -m j -V 4 -q 2 -lowpass 17 --abr 128

                                 PLOT

Bo Laramie is a movie star who has finally achieved success. But success comes at a price, in the form of four persistent photographers known as the paparazzi. Using their dishonest methods of getting the money shot regardless of what it takes, they'll stop at nothing in exploiting Bo for every last penny. But when one of their ventures nearly costs Bo's life and that of his family when they cause a car accident and do nothing afterwords except take photos, Bo has finally reached his breaking point. In doing so, Bo decides to exact a crafty and complex revenge on those four who have enjoyed making his life a living hell with his focus on the paparazzi's ring leader, Rex Harper.


                                 IMBD
                     
                    http://www.imdb.com/title/tt0338325/
 
http://leetleech.org/images/49472017554236869568.png 
http://leetleech.org/images/57780882909481042476.png 
http://leetleech.org/images/88155597865774738013.png 
http://leetleech.org/images/05856604751477608567.png 
http://leetleech.org/images/01517986695075672198.png 
http://leetleech.org/images/23462267227807198200.png